<?xml version="1.0" encoding="UTF-8"?><svg id="b" xmlns="http://www.w3.org/2000/svg" width="267.95" height="245.63" xmlns:xlink="http://www.w3.org/1999/xlink" viewBox="0 0 267.95 245.63"><defs><linearGradient id="c" x1="149.95" y1="245.63" x2="149.95" y2="9.63" gradientUnits="userSpaceOnUse"><stop offset="0" stop-color="#302f81"/><stop offset=".13" stop-color="#3a3b8b"/><stop offset=".38" stop-color="#575da7"/><stop offset=".44" stop-color="#6067af"/></linearGradient></defs><path d="m207.95,37.63c17.67,0,32,14.33,32,32v116c0,17.67-14.33,32-32,32h-116c-17.67,0-32-14.33-32-32v-116c0-17.67,14.33-32,32-32h116m-81.2,42.09h10.43c.65,0,1.42-.12,2.31-.35.89-.23,1.8-.93,2.73-2.1l6.93-8.47c.37-.51.68-.98.91-1.4.23.42.54.89.91,1.4l6.93,8.47c.93,1.17,1.84,1.87,2.73,2.1.89.23,1.66.35,2.31.35h10.92l-16.8-19.18h-13.51l-16.8,19.18m23.17,109.34c7.56,0,14.43-1.28,20.62-3.85,6.18-2.57,11.48-6.12,15.89-10.68,4.41-4.55,7.83-9.97,10.25-16.27,2.43-6.3,3.64-13.18,3.64-20.65s-1.21-14.35-3.64-20.65c-2.43-6.3-5.85-11.74-10.25-16.31-4.41-4.57-9.71-8.14-15.89-10.71-6.18-2.57-13.06-3.85-20.62-3.85s-14.36,1.28-20.54,3.85c-6.18,2.57-11.49,6.14-15.92,10.71-4.43,4.57-7.86,10.01-10.29,16.31-2.43,6.3-3.64,13.18-3.64,20.65s1.21,14.35,3.64,20.65c2.43,6.3,5.86,11.72,10.29,16.27,4.43,4.55,9.74,8.11,15.92,10.68,6.18,2.57,13.03,3.85,20.54,3.85m0-88.83c5.18,0,9.85.86,14,2.59,4.15,1.73,7.69,4.2,10.6,7.42,2.92,3.22,5.16,7.14,6.72,11.76,1.56,4.62,2.35,9.82,2.35,15.61s-.78,11.06-2.35,15.68c-1.56,4.62-3.8,8.53-6.72,11.73-2.92,3.2-6.45,5.65-10.6,7.35-4.15,1.7-8.82,2.56-14,2.56s-9.78-.85-13.93-2.56c-4.15-1.7-7.7-4.15-10.64-7.35-2.94-3.2-5.2-7.11-6.79-11.73-1.59-4.62-2.38-9.85-2.38-15.68s.79-10.99,2.38-15.61c1.59-4.62,3.85-8.54,6.79-11.76,2.94-3.22,6.49-5.69,10.64-7.42,4.15-1.73,8.8-2.59,13.93-2.59M207.95,9.63h-116c-33.08,0-60,26.92-60,60v116c0,33.08,26.92,60,60,60h116c33.08,0,60-26.92,60-60v-116c0-33.08-26.92-60-60-60h0Z" fill="url(#c)" stroke-width="0"/></svg>